<svg width="26" height="27" viewBox="0 0 26 27" fill="none" xmlns="http://www.w3.org/2000/svg">
<path id="Vector" d="M26 5.17478L20.02 0L18.343 2.05114L24.323 7.22592L26 5.17478ZM7.644 2.05114L5.98 0L0 5.16137L1.677 7.21251L7.644 2.05114ZM13.65 8.23138H11.7V16.2751L17.875 20.0958L18.85 18.4469L13.65 15.2696V8.23138ZM13 2.86892C6.539 2.86892 1.3 8.2716 1.3 14.9345C1.3 21.5973 6.526 27 13 27C19.461 27 24.7 21.5973 24.7 14.9345C24.7 8.2716 19.461 2.86892 13 2.86892ZM13 24.3188C7.969 24.3188 3.9 20.1226 3.9 14.9345C3.9 9.74628 7.969 5.55015 13 5.55015C18.031 5.55015 22.1 9.74628 22.1 14.9345C22.1 20.1226 18.031 24.3188 13 24.3188Z" fill="black"/>
</svg>
